<?xml version="1.0" encoding="UTF-8"?>
<svg width="735px" height="135px" viewBox="0 0 735 135" version="1.1" xmlns="http://www.w3.org/2000/svg" xmlns:xlink="http://www.w3.org/1999/xlink">
    <!-- Generator: Sketch 52.2 (67145) - http://www.bohemiancoding.com/sketch -->
    <title>8</title>
    <desc>Created with Sketch.</desc>
    <g id="Brand-Layouts-SPECS" stroke="none" stroke-width="1" fill="none" fill-rule="evenodd">
        <g id="Page"></g>
        <g id="8">
            <rect id="Rectangle-4-Copy-5" fill="#1F262D" x="0" y="0" width="735" height="135" rx="3.84816754"></rect>
            <path d="M443.868442,59.0450728 L449.232316,59.0450728 L450.518189,53.1502687 C450.528852,53.1387346 450.537739,53.1298623 450.548403,53.1174409 L458.467137,50.5302572 C458.523121,50.5125124 458.577329,50.5613105 458.564888,50.6189809 L456.752936,59.0450728 L463.372468,59.0450728 C463.419567,59.0450728 463.454224,59.0876602 463.44356,59.1337966 L462.311424,64.4616561 C462.298094,64.5237627 462.244775,64.5672373 462.181681,64.5672373 L455.55504,64.5672373 L452.971743,77.0320331 C452.706926,78.2493226 452.641166,78.5846983 452.48121,79.5021016 C452.183513,81.2073715 453.882606,82.0289532 455.570147,82.0289532 C456.864017,82.0289532 457.776658,81.6066283 458.693742,81.2401993 C458.731065,81.2251163 458.769277,81.2579441 458.761279,81.2969825 L457.364326,87.9060126 C457.355439,87.9441638 457.324336,87.9752171 457.286125,87.985864 C456.017137,88.3105928 454.927655,88.520868 453.66311,88.520868 C448.57294,88.520868 444.978363,86.5325694 444.978363,80.9793516 C444.978363,78.7461755 445.431573,76.5635719 445.930104,74.2682892 L448.058413,64.5672373 L442.697206,64.5672373 C442.652773,64.5672373 442.619005,64.5264244 442.627891,64.4829498 L443.801794,59.0983071 C443.808903,59.0663665 443.836451,59.0450728 443.868442,59.0450728 Z M325.067882,59.0450728 L330.432644,59.0450728 L331.718517,53.1502687 C331.730069,53.1387346 331.737178,53.1298623 331.747842,53.1174409 L339.667465,50.5302572 C339.723449,50.5125124 339.777657,50.5613105 339.766104,50.6189809 L337.952376,59.0450728 L344.572796,59.0450728 C344.619006,59.0450728 344.654552,59.0876602 344.644777,59.1337966 L343.511752,64.4616561 C343.499311,64.5237627 343.445103,64.5672373 343.382898,64.5672373 L336.756257,64.5672373 L334.17296,77.0320331 C333.908143,78.2493226 333.841494,78.5846983 333.681538,79.5021016 C333.383841,81.2073715 335.082934,82.0289532 336.770475,82.0289532 C338.064345,82.0289532 338.977875,81.6066283 339.89407,81.2401993 C339.930504,81.2251163 339.969605,81.2579441 339.960718,81.2969825 L338.563765,87.9060126 C338.555767,87.9441638 338.524665,87.9752171 338.486453,87.985864 C337.216576,88.3105928 336.128872,88.520868 334.863439,88.520868 C329.77238,88.520868 326.178691,86.5325694 326.178691,80.9793516 C326.178691,78.7461755 326.631012,76.5635719 327.13132,74.2682892 L329.257853,64.5672373 L323.896645,64.5672373 C323.852213,64.5672373 323.819333,64.5264244 323.829108,64.4829498 L325.002122,59.0983071 C325.009231,59.0663665 325.035891,59.0450728 325.067882,59.0450728 Z M489.261423,69.3254906 C489.261423,71.4317918 488.992163,73.4839715 488.572722,75.5228426 C488.554949,75.6053557 488.48208,75.6639133 488.398547,75.6639133 L471.242327,75.6639133 C471.149019,75.6639133 471.071707,75.5938216 471.065486,75.5024362 C470.982842,74.2461083 471.110807,72.7449029 471.825279,70.7228892 C471.849273,70.6519102 471.917699,70.6031122 471.992345,70.6031122 L481.863437,70.6031122 C481.950524,70.6031122 482.026059,70.5365694 482.039389,70.4496202 C482.130919,69.8400882 482.17624,69.2740308 482.17624,68.6627244 C482.17624,65.6257114 480.572232,63.9186669 477.474409,63.9186669 C473.107597,63.9186669 470.887757,66.484557 469.467699,70.116019 C468.71146,71.8887189 468.486632,73.620606 468.469748,75.5512342 C468.469748,75.5512342 468.484855,76.4491183 468.484855,76.7090788 L468.492853,76.7090788 C468.861641,81.1878523 471.17479,82.5941233 475.915722,82.5941233 C478.74784,82.5941233 481.950524,82.0209681 484.614688,80.9128088 C484.867952,80.8072275 485.13899,81.0157283 485.094557,81.2863357 L484.171253,86.7801086 C484.148148,86.9149686 484.051286,87.0258733 483.919766,87.0649117 C481.108975,87.8980275 478.06447,88.2688926 475.096389,88.2688926 C466.893288,88.2688926 461.363237,84.3056039 461.363237,75.8484587 C461.363237,67.0106887 468.236922,58.4985347 477.584601,58.4985347 C484.623574,58.4985347 489.261423,62.0811986 489.261423,69.3254906 Z M400.483804,82.9942673 C406.033405,82.9942673 407.742273,79.1835834 408.902846,74.5992287 L406.307997,74.5992287 C402.704533,74.5992287 396.739045,75.2060989 396.739045,80.0096013 C396.739045,81.9899148 398.623866,82.9942673 400.483804,82.9942673 Z M407.742273,83.8149617 L407.726278,83.9045727 C405.184747,87.1021757 403.034221,88.7142857 398.940224,88.7142857 C393.784294,88.7142857 389.652974,85.9682865 389.652974,80.7202783 C389.652974,71.3208871 400.159448,70.6031122 407.141548,70.6031122 L409.670637,70.6031122 C409.707961,70.6031122 409.741729,70.5782696 409.750616,70.5418928 C409.965668,69.7841922 409.965668,68.9794681 409.965668,68.1667588 C409.965668,65.302757 406.854515,64.4758519 404.265886,64.4758519 C401.035654,64.4758519 397.940496,65.2761399 395.044395,66.607883 C394.983967,66.6362746 394.919096,66.585702 394.931537,66.521821 L395.916158,60.9774755 C395.938374,60.8514878 396.028128,60.7459066 396.149872,60.7042065 C399.241475,59.6457324 402.391729,59.0583814 405.639734,59.0583814 C411.349292,59.0583814 416.702502,61.1602464 416.702502,67.8393682 C416.701613,71.6979629 413.922814,82.5781531 413.235001,88.1127389 C413.229669,88.1535518 413.195012,88.1819434 413.154134,88.1819434 L407.066901,88.1819434 C407.016249,88.1819434 406.977148,88.135807 406.986923,88.0852345 L407.742273,83.8149617 Z M241.255134,46.9875189 L248.382972,46.9875189 C248.468282,46.9875189 248.532265,47.0673703 248.514492,47.1516578 L247.03134,53.9603163 C247.017121,54.0224229 246.962914,54.0667848 246.89982,54.0667848 L239.751543,54.0667848 C239.665344,54.0667848 239.601362,53.9869334 239.619135,53.9026459 L241.123614,47.0931002 C241.136944,47.0318808 241.19204,46.9875189 241.255134,46.9875189 Z M238.700273,59.0574942 L245.54019,59.015794 C245.715253,59.0149068 245.844996,59.1746095 245.808561,59.344959 L239.660012,88.0745877 C239.644905,88.1482284 239.579145,88.2005754 239.50361,88.2005754 L232.505515,88.2005754 C232.353556,88.2005754 232.240698,88.0603919 232.272689,87.9122233 L238.42035,59.2855141 C238.448786,59.1524286 238.565199,59.0574942 238.700273,59.0574942 Z M267.801688,65.665637 C267.767919,65.7765417 267.639954,65.8244525 267.540425,65.7641204 C266.114147,64.9079364 264.251543,64.4474603 262.29563,64.4474603 C256.376352,64.4474603 253.108797,69.872916 253.108797,75.2238437 C253.108797,78.9271719 253.973451,81.9464401 259.061844,81.9464401 C260.814256,81.9464401 263.446428,81.6314709 265.341024,80.7513316 C265.429,80.7096315 265.52764,80.7814977 265.512533,80.8782065 L264.598115,87.1802525 C262.320513,88.2813139 259.922054,88.3691504 257.492493,88.3691504 C250.126497,88.3691504 245.367792,83.4627286 245.367792,76.1155171 C245.367792,66.1633771 251.950001,58.597018 262.183661,58.597018 C264.946465,58.597018 267.610629,59.0814496 269.611862,59.7069518 L267.801688,65.665637 Z M276.50954,46.2857143 L283.592946,46.2857143 C283.692474,46.2857143 283.766232,46.3770997 283.745793,46.4738086 L278.857346,69.5952107 L289.490897,59.0770134 C289.503338,59.0645921 289.520222,59.0583814 289.536218,59.0583814 L298.980759,59.0583814 C299.037632,59.0583814 299.066069,59.1284731 299.024302,59.1675116 L285.314255,72.2098988 C285.293817,72.229418 285.289373,72.2613586 285.302703,72.2862012 L294.002558,87.9743299 C294.026551,88.0169173 293.995449,88.0692643 293.947462,88.0692643 L285.747915,88.0692643 C285.723922,88.0692643 285.702594,88.0550685 285.69193,88.0337748 L278.133987,72.6313365 L278.03357,72.6313365 L274.755351,88.0222407 C274.74913,88.0515195 274.72336,88.0728132 274.693146,88.0728132 L267.573305,88.0728132 C267.533316,88.0728132 267.503102,88.0355492 267.511989,87.9965108 L276.334477,46.4276722 C276.35225,46.3451592 276.425119,46.2857143 276.50954,46.2857143 Z M214.814418,59.0450728 L220.178291,59.0450728 L221.464164,53.1502687 C221.474828,53.1387346 221.483714,53.1298623 221.494378,53.1174409 L229.414,50.5302572 C229.469097,50.5125124 229.523304,50.5613105 229.510863,50.6189809 L227.698912,59.0450728 L234.318444,59.0450728 C234.365542,59.0450728 234.400199,59.0876602 234.390424,59.1337966 L233.257399,64.4616561 C233.244069,64.5237627 233.190751,64.5672373 233.127657,64.5672373 L226.501015,64.5672373 L223.917718,77.0320331 C223.652902,78.2493226 223.587142,78.5846983 223.427185,79.5021016 C223.129488,81.2073715 224.828582,82.0289532 226.517011,82.0289532 C227.810881,82.0289532 228.722633,81.6066283 229.639717,81.2401993 C229.67704,81.2251163 229.715252,81.2579441 229.707254,81.2969825 L228.310301,87.9060126 C228.301414,87.9441638 228.2712,87.9752171 228.2321,87.985864 C226.963112,88.3105928 225.873631,88.520868 224.609086,88.520868 C219.518915,88.520868 215.924338,86.5325694 215.924338,80.9793516 C215.924338,78.7461755 216.377548,76.5635719 216.876968,74.2682892 L219.004389,64.5672373 L213.643181,64.5672373 C213.598749,64.5672373 213.565869,64.5264244 213.574755,64.4829498 L214.747769,59.0983071 C214.754878,59.0663665 214.782427,59.0450728 214.814418,59.0450728 M322.742293,69.4239739 C322.742293,71.5311623 322.473921,73.583342 322.053591,75.6231004 C322.035818,75.7047263 321.962949,75.7641712 321.880305,75.7641712 L304.723196,75.7641712 C304.629888,75.7641712 304.553464,75.6940794 304.547244,75.6018067 C304.463711,74.3454788 304.591676,72.8442734 305.306148,70.8213726 C305.331919,70.7512808 305.399456,70.7024828 305.474103,70.7024828 L315.344306,70.7024828 C315.432282,70.7024828 315.507817,70.63594 315.520258,70.549878 C315.611789,69.9385715 315.657998,69.3742886 315.657998,68.762095 C315.657998,65.7250819 314.05399,64.0180375 310.956167,64.0180375 C306.589355,64.0180375 304.369514,66.5830403 302.948568,70.2153895 C302.192329,71.9872023 301.967501,73.7190893 301.950617,75.6497175 C301.950617,75.6497175 301.965724,76.5493761 301.965724,76.8084494 L301.973722,76.8084494 C302.342511,81.2863357 304.656547,82.6934939 309.39748,82.6934939 C312.229598,82.6934939 315.432282,82.1212259 318.095557,81.0130666 C318.348821,80.9074854 318.620747,81.1150989 318.575426,81.3865935 L317.653011,86.8794791 C317.629906,87.013452 317.533043,87.1252438 317.401524,87.1642823 C314.589844,87.9965108 311.546228,88.3691504 308.577258,88.3691504 C300.374157,88.3691504 294.844995,84.4049745 294.844995,75.9487165 C294.844995,67.1100592 301.717792,58.597018 311.066359,58.597018 C318.105332,58.597018 322.742293,62.1805692 322.742293,69.4239739 Z M347.857236,62.4059275 C348.054516,61.3474534 348.318444,60.0858021 348.489953,59.1861436 C348.50506,59.1098412 348.57082,59.0583814 348.649021,59.0583814 L355.239227,59.0583814 C355.340533,59.0583814 355.416957,59.1497668 355.399184,59.2491374 L354.748694,62.8486588 L354.755803,62.8122821 C356.756148,59.9039185 360.07169,58.597018 363.568516,58.597018 C366.937377,58.597018 370.42976,60.5853167 370.813656,64.0189247 L370.923848,64.0189247 C372.797116,60.3084987 376.956873,58.597018 380.9389,58.597018 C385.20174,58.597018 388.861189,62.0811986 388.861189,66.3958333 C388.861189,68.9244594 388.202702,71.7973335 387.590424,74.1183461 L384.568135,87.9104488 C384.551251,87.9849767 384.485491,88.0382109 384.409067,88.0382109 L377.319441,88.0382109 C377.216358,88.0382109 377.139046,87.9423893 377.161262,87.8412443 L380.163112,73.8477387 C380.547007,72.1264985 381.100634,69.4843061 381.100634,67.7719382 C381.100634,65.6638626 379.509956,64.3383301 377.621581,64.3383301 C372.482535,64.3383301 371.202883,70.3058877 370.260917,74.1822272 L367.295502,87.9095615 C367.278618,87.9840895 367.212858,88.0382109 367.136434,88.0382109 L360.05836,88.0382109 C359.955277,88.0382109 359.877965,87.9423893 359.900181,87.8421315 L362.88959,73.8477387 C363.29037,72.1264985 363.841331,69.4843061 363.842219,67.7719382 C363.842219,65.6638626 362.234657,64.3383301 360.35428,64.3383301 C355.331647,64.3383301 353.926695,70.3582347 352.991839,74.1822272 L350.032644,87.9095615 C350.016648,87.9840895 349.95,88.0382109 349.874465,88.0382109 L342.777729,88.0382109 C342.674646,88.0382109 342.597334,87.9432766 342.617773,87.8430188 L347.857236,62.4059275 Z M438.743615,65.0348114 C438.725842,65.0978052 438.657416,65.1288585 438.597877,65.0995797 C437.732334,64.6754803 435.772868,64.1182953 433.752973,64.1182953 C431.551794,64.1182953 428.820982,64.625795 428.820982,66.881152 C428.820982,70.4762373 438.449473,71.7982207 438.449473,78.759484 C438.449473,86.1625914 431.960572,88.3700377 425.581863,88.3700377 C422.648439,88.3700377 419.667028,87.9477128 416.984203,86.69937 C416.943325,86.680738 416.922886,86.6354889 416.93355,86.5920143 L418.534892,80.651961 C418.544667,80.6173588 418.582879,80.6013885 418.613981,80.618246 C420.693416,81.7716544 422.730195,82.8265795 425.572977,82.8265795 C428.076295,82.8265795 430.692472,82.1336472 430.692472,79.821507 C430.692472,75.2229564 421.05154,74.7864357 421.05154,67.666357 C421.05154,60.9694904 427.532443,58.5979053 433.418842,58.5979053 C436.064344,58.5979053 438.781827,59.0645921 440.263201,59.4567509 C440.312077,59.4700595 440.336959,59.5179703 440.323629,59.5658811 L438.743615,65.0348114 Z M493.754423,63.0651447 C493.972141,61.9277066 494.20319,60.6412126 494.404913,59.3919826 C494.428906,59.2420395 494.558649,59.1329093 494.710607,59.1329093 L501.17196,59.1329093 C501.357687,59.1329093 501.498093,59.3005972 501.464325,59.483368 L500.493034,64.625795 L500.549907,64.1484614 C500.551684,64.1280549 500.557905,64.1085357 500.565903,64.090791 C501.980629,61.0555524 505.608975,58.5979053 509.0276,58.5979053 C509.91447,58.5979053 510.835997,58.649365 511.667771,58.828587 C511.763744,58.8489934 511.823284,58.9457023 511.801956,59.0406367 L510.333911,65.9229358 C510.312584,66.0240809 510.211278,66.084413 510.112638,66.0524725 C509.319965,65.8093695 508.354006,65.665637 507.479577,65.665637 C502.224118,65.665637 499.673701,70.3573475 498.72196,74.9514619 L496.102228,87.7711525 C496.085344,87.8536656 496.013364,87.9122233 495.928942,87.9122233 L489.00105,87.9122233 C488.821543,87.9122233 488.688246,87.7489716 488.723792,87.5724114 L493.754423,63.0651447 Z" id="Fill-1-Copy-5" fill="#FFFFFF"></path>
        </g>
    </g>
</svg>